<svg width="239" height="219" viewBox="0 0 239 219" fill="none" xmlns="http://www.w3.org/2000/svg">
<g id="bg_img">
<g id="Group">
<g id="Group_2">
<path id="Vector" d="M95.0469 100.25L201.963 35.995L238.567 153.222L131.628 218.04L95.0469 100.25Z" stroke="#CCCCCC" stroke-width="0.4" stroke-linecap="round" stroke-linejoin="round"/>
<path id="Vector_2" d="M124.302 194.448L231.233 129.755" stroke="#CCCCCC" stroke-width="0.4" stroke-linecap="round" stroke-linejoin="round"/>
<path id="Vector_3" d="M116.983 170.879L223.907 106.295" stroke="#CCCCCC" stroke-width="0.4" stroke-linecap="round" stroke-linejoin="round"/>
<path id="Vector_4" d="M109.666 147.318L216.59 82.8436" stroke="#CCCCCC" stroke-width="0.4" stroke-linecap="round" stroke-linejoin="round"/>
<path id="Vector_5" d="M102.349 123.78L209.272 59.4154" stroke="#CCCCCC" stroke-width="0.4" stroke-linecap="round" stroke-linejoin="round"/>
<path id="Vector_6" d="M180.643 48.812L217.247 166.148" stroke="#CCCCCC" stroke-width="0.4" stroke-linecap="round" stroke-linejoin="round"/>
<path id="Vector_7" d="M159.292 61.6367L195.889 179.09" stroke="#CCCCCC" stroke-width="0.4" stroke-linecap="round" stroke-linejoin="round"/>
<path id="Vector_8" d="M137.908 74.4835L174.505 192.054" stroke="#CCCCCC" stroke-width="0.4" stroke-linecap="round" stroke-linejoin="round"/>
<path id="Vector_9" d="M116.493 87.3564L153.082 205.037" stroke="#CCCCCC" stroke-width="0.4" stroke-linecap="round" stroke-linejoin="round"/>
</g>
<g id="Group_3">
<path id="Vector_10" d="M1 66.1312L109.27 1L202.089 36.2986L95.2442 100.163L1 66.1312Z" stroke="#CCCCCC" stroke-width="0.4" stroke-linecap="round" stroke-linejoin="round"/>
<path id="Vector_11" d="M76.6494 93.4543L183.779 29.3397" stroke="#CCCCCC" stroke-width="0.4" stroke-linecap="round" stroke-linejoin="round"/>
<path id="Vector_12" d="M57.9346 86.689L165.341 22.3242" stroke="#CCCCCC" stroke-width="0.4" stroke-linecap="round" stroke-linejoin="round"/>
<path id="Vector_13" d="M39.0859 79.8859L146.786 15.263" stroke="#CCCCCC" stroke-width="0.4" stroke-linecap="round" stroke-linejoin="round"/>
<path id="Vector_14" d="M20.1104 73.0294L128.095 8.15625" stroke="#CCCCCC" stroke-width="0.4" stroke-linecap="round" stroke-linejoin="round"/>
<path id="Vector_15" d="M87.5391 14.0748L180.643 49.1232" stroke="#CCCCCC" stroke-width="0.4" stroke-linecap="round" stroke-linejoin="round"/>
<path id="Vector_16" d="M65.8467 27.1185L159.236 61.9166" stroke="#CCCCCC" stroke-width="0.4" stroke-linecap="round" stroke-linejoin="round"/>
<path id="Vector_17" d="M44.1943 40.1451L137.868 74.6852" stroke="#CCCCCC" stroke-width="0.4" stroke-linecap="round" stroke-linejoin="round"/>
<path id="Vector_18" d="M22.5732 53.1497L116.54 87.4395" stroke="#CCCCCC" stroke-width="0.4" stroke-linecap="round" stroke-linejoin="round"/>
</g>
<g id="Group_4">
<path id="Vector_19" d="M1.15137 66.2582L95.4273 100.016L131.486 218.095L36.7266 182.906L1.15137 66.2582Z" stroke="#CCCCCC" stroke-width="0.4" stroke-linecap="round" stroke-linejoin="round"/>
<path id="Vector_20" d="M29.6064 159.564L124.27 194.472" stroke="#CCCCCC" stroke-width="0.4" stroke-linecap="round" stroke-linejoin="round"/>
<path id="Vector_21" d="M22.4873 136.238L117.056 170.856" stroke="#CCCCCC" stroke-width="0.4" stroke-linecap="round" stroke-linejoin="round"/>
<path id="Vector_22" d="M15.375 112.904L109.849 147.232" stroke="#CCCCCC" stroke-width="0.4" stroke-linecap="round" stroke-linejoin="round"/>
<path id="Vector_23" d="M8.26367 89.5769L102.643 123.624" stroke="#CCCCCC" stroke-width="0.4" stroke-linecap="round" stroke-linejoin="round"/>
<path id="Vector_24" d="M76.3887 93.1974L112.344 210.987" stroke="#CCCCCC" stroke-width="0.4" stroke-linecap="round" stroke-linejoin="round"/>
<path id="Vector_25" d="M57.4443 86.4177L93.3047 203.918" stroke="#CCCCCC" stroke-width="0.4" stroke-linecap="round" stroke-linejoin="round"/>
<path id="Vector_26" d="M38.5879 79.6614L74.3532 196.88" stroke="#CCCCCC" stroke-width="0.4" stroke-linecap="round" stroke-linejoin="round"/>
<path id="Vector_27" d="M19.8262 72.9441L55.4885 189.874" stroke="#CCCCCC" stroke-width="0.4" stroke-linecap="round" stroke-linejoin="round"/>
</g>
</g>
</g>
</svg>
