<svg width="465" height="426" viewBox="0 0 465 426" fill="none" xmlns="http://www.w3.org/2000/svg">
<path d="M184.023 194.842L392.836 69.3472L464.327 298.298L255.468 424.892L184.023 194.842Z" stroke="#CCCCCC" stroke-width="0.4" stroke-linecap="round" stroke-linejoin="round"/>
<path d="M241.161 378.815L450.005 252.465" stroke="#CCCCCC" stroke-width="0.4" stroke-linecap="round" stroke-linejoin="round"/>
<path d="M226.868 332.784L435.696 206.648" stroke="#CCCCCC" stroke-width="0.4" stroke-linecap="round" stroke-linejoin="round"/>
<path d="M212.576 286.767L421.404 160.845" stroke="#CCCCCC" stroke-width="0.4" stroke-linecap="round" stroke-linejoin="round"/>
<path d="M198.284 240.797L407.112 115.089" stroke="#CCCCCC" stroke-width="0.4" stroke-linecap="round" stroke-linejoin="round"/>
<path d="M351.197 94.3794L422.689 323.544" stroke="#CCCCCC" stroke-width="0.4" stroke-linecap="round" stroke-linejoin="round"/>
<path d="M309.497 119.427L380.973 348.821" stroke="#CCCCCC" stroke-width="0.4" stroke-linecap="round" stroke-linejoin="round"/>
<path d="M267.733 144.518L339.209 374.14" stroke="#CCCCCC" stroke-width="0.4" stroke-linecap="round" stroke-linejoin="round"/>
<path d="M225.909 169.659L297.37 399.496" stroke="#CCCCCC" stroke-width="0.4" stroke-linecap="round" stroke-linejoin="round"/>
<path d="M0.345703 128.205L211.803 1L393.084 69.9403L184.41 194.671L0.345703 128.205Z" stroke="#CCCCCC" stroke-width="0.4" stroke-linecap="round" stroke-linejoin="round"/>
<path d="M148.093 181.569L357.323 56.3492" stroke="#CCCCCC" stroke-width="0.4" stroke-linecap="round" stroke-linejoin="round"/>
<path d="M111.542 168.356L321.314 42.6474" stroke="#CCCCCC" stroke-width="0.4" stroke-linecap="round" stroke-linejoin="round"/>
<path d="M74.7295 155.069L285.073 28.8565" stroke="#CCCCCC" stroke-width="0.4" stroke-linecap="round" stroke-linejoin="round"/>
<path d="M37.6699 141.678L248.571 14.9766" stroke="#CCCCCC" stroke-width="0.4" stroke-linecap="round" stroke-linejoin="round"/>
<path d="M169.36 26.536L351.198 94.9875" stroke="#CCCCCC" stroke-width="0.4" stroke-linecap="round" stroke-linejoin="round"/>
<path d="M126.995 52.0109L309.389 119.974" stroke="#CCCCCC" stroke-width="0.4" stroke-linecap="round" stroke-linejoin="round"/>
<path d="M84.7061 77.4527L267.657 144.912" stroke="#CCCCCC" stroke-width="0.4" stroke-linecap="round" stroke-linejoin="round"/>
<path d="M42.4795 102.851L226.003 169.821" stroke="#CCCCCC" stroke-width="0.4" stroke-linecap="round" stroke-linejoin="round"/>
<path d="M0.640625 128.453L184.767 194.385L255.191 425L70.1211 356.274L0.640625 128.453Z" stroke="#CCCCCC" stroke-width="0.4" stroke-linecap="round" stroke-linejoin="round"/>
<path d="M56.2158 310.686L241.1 378.862" stroke="#CCCCCC" stroke-width="0.4" stroke-linecap="round" stroke-linejoin="round"/>
<path d="M42.3105 265.128L227.009 332.739" stroke="#CCCCCC" stroke-width="0.4" stroke-linecap="round" stroke-linejoin="round"/>
<path d="M28.4199 219.554L212.933 286.601" stroke="#CCCCCC" stroke-width="0.4" stroke-linecap="round" stroke-linejoin="round"/>
<path d="M14.5312 173.996L198.859 240.493" stroke="#CCCCCC" stroke-width="0.4" stroke-linecap="round" stroke-linejoin="round"/>
<path d="M147.583 181.067L217.806 411.117" stroke="#CCCCCC" stroke-width="0.4" stroke-linecap="round" stroke-linejoin="round"/>
<path d="M110.584 167.826L180.621 397.311" stroke="#CCCCCC" stroke-width="0.4" stroke-linecap="round" stroke-linejoin="round"/>
<path d="M73.7549 154.63L143.607 383.566" stroke="#CCCCCC" stroke-width="0.4" stroke-linecap="round" stroke-linejoin="round"/>
<path d="M37.1133 141.511L106.764 369.881" stroke="#CCCCCC" stroke-width="0.4" stroke-linecap="round" stroke-linejoin="round"/>
</svg>
