<?xml version="1.0" standalone="no"?>
<!DOCTYPE svg PUBLIC "-//W3C//DTD SVG 20010904//EN"
 "http://www.w3.org/TR/2001/REC-SVG-20010904/DTD/svg10.dtd">
<svg version="1.0" xmlns="http://www.w3.org/2000/svg"
 width="2000.000000pt" height="2000.000000pt" viewBox="0 0 2000.000000 2000.000000"
 preserveAspectRatio="xMidYMid meet">
<metadata>
Created by potrace 1.14, written by Peter Selinger 2001-2017
</metadata>
<g transform="translate(0.000000,2000.000000) scale(0.100000,-0.100000)"
fill="#000000" stroke="none">
<path d="M7299 19136 c-2 -2 -47 -6 -99 -10 -52 -3 -106 -8 -120 -10 -14 -2
-54 -7 -90 -11 -36 -3 -74 -8 -85 -10 -11 -3 -36 -7 -55 -10 -58 -8 -99 -16
-273 -51 -10 -2 -26 -5 -35 -8 -9 -3 -30 -8 -47 -11 -16 -3 -55 -12 -85 -20
-30 -9 -78 -22 -106 -30 -90 -25 -402 -136 -429 -153 -5 -4 -12 -7 -15 -8 -14
-2 -114 -49 -285 -131 -29 -13 -69 -36 -180 -98 -75 -43 -221 -137 -349 -225
-27 -19 -99 -73 -106 -80 -3 -3 -39 -32 -80 -65 -208 -165 -440 -395 -610
-605 -25 -30 -47 -57 -50 -60 -19 -18 -138 -184 -204 -285 -43 -66 -87 -132
-97 -147 -11 -15 -19 -30 -19 -33 0 -3 -12 -24 -27 -48 -49 -77 -172 -325
-233 -468 -134 -316 -270 -801 -295 -1056 -3 -27 -7 -57 -9 -68 -2 -11 -7 -51
-11 -90 -4 -38 -10 -81 -13 -95 -3 -14 -7 -1766 -9 -3893 -3 -3433 -2 -3872
12 -3899 8 -17 12 -35 8 -41 -3 -5 -2 -7 4 -4 5 3 25 -4 44 -17 57 -38 67 -34
334 109 33 18 110 58 170 90 61 32 175 93 255 135 80 43 190 101 245 130 55
29 132 70 170 90 39 21 111 59 160 85 50 26 122 65 160 85 39 21 111 59 160
85 50 26 122 65 160 85 72 39 147 78 320 170 55 29 132 70 170 90 66 36 120
64 345 183 52 27 129 68 170 90 41 22 102 55 135 71 135 70 180 112 208 195
13 39 14 423 15 2975 l0 2931 21 103 c22 106 42 166 87 255 170 338 515 552
897 555 233 2 441 -64 671 -212 45 -28 116 -74 159 -101 43 -28 138 -88 211
-135 73 -47 140 -89 149 -95 9 -5 78 -50 154 -99 76 -48 178 -114 226 -145 49
-31 117 -74 150 -96 34 -22 125 -80 202 -129 77 -49 165 -106 195 -125 30 -20
62 -40 72 -46 10 -5 182 -116 383 -245 200 -129 376 -242 390 -250 14 -8 154
-98 313 -200 158 -101 377 -242 487 -312 110 -70 205 -131 211 -135 5 -4 18
-12 27 -18 18 -10 215 -137 525 -337 101 -65 187 -118 193 -118 5 0 9 -4 9 -9
0 -5 8 -11 18 -14 9 -4 114 -69 232 -146 118 -77 238 -154 265 -171 28 -17 76
-48 107 -68 150 -96 340 -218 356 -227 9 -5 19 -13 22 -16 3 -3 14 -11 25 -17
11 -6 14 -12 7 -12 -7 0 -16 -10 -21 -22 -7 -18 -1 -31 24 -63 70 -88 123
-195 159 -319 83 -284 35 -575 -137 -831 -52 -77 -205 -230 -283 -283 -67 -45
-96 -61 -259 -147 -60 -32 -132 -70 -160 -85 -27 -15 -95 -51 -150 -80 -153
-81 -397 -210 -510 -270 -38 -21 -115 -61 -170 -90 -55 -29 -122 -65 -150 -80
-27 -15 -95 -51 -150 -80 -55 -29 -134 -71 -175 -93 -249 -133 -378 -201 -465
-247 -147 -78 -249 -132 -335 -178 -196 -104 -229 -122 -315 -167 -179 -95
-281 -149 -340 -180 -33 -18 -100 -54 -150 -80 -49 -26 -121 -64 -160 -85 -38
-21 -140 -74 -225 -119 -85 -45 -163 -86 -172 -91 -25 -14 -150 -80 -263 -140
-55 -29 -122 -65 -150 -80 -27 -15 -104 -55 -170 -90 -66 -34 -133 -70 -150
-80 -16 -9 -84 -46 -150 -80 -174 -91 -349 -184 -500 -265 -33 -18 -103 -55
-155 -82 -52 -28 -135 -72 -185 -98 -49 -26 -121 -64 -160 -85 -38 -20 -115
-61 -170 -90 -55 -29 -122 -65 -150 -80 -27 -15 -95 -51 -150 -80 -55 -29
-131 -70 -170 -90 -38 -21 -115 -61 -170 -90 -217 -114 -273 -144 -340 -180
-38 -21 -105 -56 -147 -79 -43 -22 -111 -58 -150 -80 -40 -21 -118 -62 -173
-91 -204 -107 -348 -190 -353 -202 -2 -5 -8 -8 -13 -8 -26 0 -323 -214 -479
-344 -154 -129 -335 -305 -443 -429 -29 -33 -71 -82 -95 -109 -24 -27 -75 -93
-115 -146 -39 -53 -74 -99 -77 -102 -3 -3 -41 -59 -84 -125 -43 -66 -87 -132
-97 -147 -11 -15 -19 -29 -19 -32 0 -2 -23 -44 -50 -91 -66 -114 -206 -404
-225 -465 -4 -14 -11 -29 -15 -35 -16 -20 -131 -375 -164 -505 -47 -182 -87
-397 -102 -540 -3 -36 -8 -67 -9 -70 -26 -46 -26 -1515 0 -1970 2 -36 6 -128
10 -205 4 -77 8 -165 10 -195 2 -30 6 -107 9 -170 8 -137 15 -210 22 -222 16
-26 50 6 159 148 17 21 44 54 61 74 16 19 39 47 51 62 18 25 105 127 128 152
6 6 46 52 90 101 43 50 82 92 85 95 3 3 30 34 59 70 30 36 57 67 60 70 4 3 22
25 41 50 19 25 37 47 41 50 3 3 39 46 78 95 40 50 91 112 114 139 129 152 185
218 240 281 67 75 307 318 372 375 203 178 441 361 745 575 197 138 953 637
1070 705 19 11 71 43 115 71 80 52 547 329 575 342 8 4 31 17 50 28 19 12 96
55 170 97 161 90 170 94 400 219 408 221 807 426 1945 997 907 454 1307 658
1540 786 28 15 100 53 160 85 61 32 142 74 180 95 39 21 111 59 160 85 50 26
123 65 163 86 187 100 271 145 512 272 52 27 118 62 145 77 28 15 104 55 170
90 66 34 138 73 160 85 22 12 94 51 160 85 66 34 138 73 160 85 22 12 96 52
165 88 69 35 154 80 190 99 36 19 106 57 155 83 50 26 122 64 160 85 39 20
124 65 190 100 199 105 343 188 470 273 111 74 323 231 370 274 11 10 52 45
90 78 113 97 311 299 420 430 28 33 56 67 64 75 71 74 296 403 399 581 218
379 407 888 476 1282 3 15 7 35 10 45 2 9 8 40 12 67 3 28 7 57 9 65 1 8 5 42
9 75 4 33 10 71 12 85 26 160 26 782 0 940 -2 14 -7 51 -11 84 -4 32 -8 68
-10 80 -2 11 -6 37 -9 56 -32 215 -132 595 -206 780 -108 274 -223 512 -342
710 -27 45 -171 263 -178 270 -3 3 -32 41 -64 85 -110 147 -250 308 -397 455
-80 80 -157 154 -170 165 -13 11 -64 55 -114 96 -75 63 -190 151 -280 215 -92
65 -137 94 -145 94 -6 0 -10 3 -10 8 0 4 -26 22 -57 40 -32 18 -145 88 -252
157 -106 68 -223 143 -260 166 -36 23 -117 75 -179 116 -62 40 -114 73 -116
73 -2 0 -47 28 -99 63 -53 34 -146 94 -207 132 -61 39 -160 102 -221 142 -60
39 -131 84 -157 99 -26 15 -49 30 -52 33 -3 3 -14 11 -25 18 -11 6 -64 40
-118 75 -54 35 -111 70 -125 79 -39 24 -521 331 -632 403 -52 34 -138 89 -190
121 -52 33 -99 63 -105 68 -5 4 -73 48 -150 97 -77 49 -219 139 -315 200 -96
61 -184 117 -195 123 -11 7 -22 14 -25 17 -3 3 -59 39 -125 80 -66 41 -124 78
-130 83 -17 13 -347 225 -385 247 -19 11 -47 28 -62 38 -185 119 -263 169
-277 177 -9 6 -55 35 -101 65 -47 30 -93 59 -102 65 -10 5 -89 56 -175 111
-87 56 -189 120 -228 143 -38 23 -77 46 -85 51 -51 33 -376 187 -484 230 -295
118 -645 215 -911 255 -22 3 -67 10 -100 15 -33 5 -91 12 -130 15 -38 4 -83 9
-100 12 -36 5 -601 13 -606 9z"/>
</g>
</svg>
