<svg width="30" height="31" viewBox="0 0 30 31" fill="none" xmlns="http://www.w3.org/2000/svg">
<path d="M13.9484 29.2461L13.5948 29.5997L13.2413 29.2461L12.0221 28.0269L11.6686 27.6734L12.0221 27.3198L23.15 16.192L1.85722 16.192L1.35722 16.192L1.35722 15.692L1.35722 13.9679L1.35722 13.4679L1.85722 13.4679L23.309 13.4679L13.7291 3.88793L13.3755 3.53438L13.7291 3.18082L14.9482 1.96167L15.3018 1.60812L15.6553 1.96167L26.5178 12.8242L26.8714 13.1777L28.0905 14.3969L28.444 14.7504L28.4441 14.7504L28.0905 15.1039L28.0905 15.104L26.8715 16.3232L26.518 16.6769L26.5178 16.6767L13.9484 29.2461Z" fill="#070501" stroke="#070501"/>
</svg>
