<svg aria-hidden="true" style="position: absolute; width: 0; height: 0; overflow: hidden;" version="1.1"
    xmlns="http://www.w3.org/2000/svg" xmlns:xlink="http://www.w3.org/1999/xlink">
    <defs>
        <symbol id="linkedin" viewBox="0 0 32 32">
            <path
                d="M16.816 10.874v2.715c0.568-0.866 1.352-1.57 2.274-2.042s1.951-0.697 2.986-0.652c5.528 0 6.723 3.456 6.723 7.952v9.153h-5.12v-8.115c0-1.936-0.39-4.425-3.405-4.425-2.923 0-3.422 2.107-3.422 4.282v8.259h-5.104v-17.126h5.067zM8.321 6.57c-0.001 0.507-0.151 1.003-0.432 1.425s-0.681 0.752-1.149 0.948c-0.468 0.194-0.983 0.245-1.479 0.146s-0.952-0.344-1.31-0.703c-0.358-0.359-0.601-0.816-0.7-1.314s-0.048-1.013 0.145-1.481 0.521-0.87 0.942-1.153c0.421-0.283 0.916-0.435 1.423-0.438 0.337 0 0.67 0.067 0.982 0.196s0.594 0.319 0.831 0.557 0.426 0.522 0.554 0.834c0.128 0.312 0.194 0.645 0.193 0.982z">
            </path>
            <path d="M8.32 10.895h-5.12v17.105h5.12v-17.105z"></path>
        </symbol>
        <symbol id="instagram" viewBox="0 0 32 32">
            <path
                d="M17.371 2.667c1.5 0.004 2.261 0.012 2.919 0.031l0.259 0.009c0.299 0.011 0.593 0.024 0.949 0.040 1.419 0.067 2.387 0.291 3.236 0.62 0.88 0.339 1.621 0.797 2.363 1.537 0.678 0.667 1.203 1.473 1.537 2.363 0.329 0.849 0.553 1.817 0.62 3.237 0.016 0.355 0.029 0.649 0.040 0.949l0.008 0.259c0.020 0.656 0.028 1.417 0.031 2.917l0.001 0.995v1.747c0.003 0.973-0.007 1.945-0.031 2.917l-0.008 0.259c-0.011 0.3-0.024 0.595-0.040 0.949-0.067 1.42-0.293 2.387-0.621 3.237-0.334 0.89-0.859 1.697-1.537 2.363-0.667 0.678-1.473 1.202-2.363 1.537-0.849 0.329-1.817 0.553-3.236 0.62-0.316 0.015-0.633 0.028-0.949 0.040l-0.259 0.008c-0.657 0.019-1.419 0.028-2.919 0.031l-2.74 0.001c-0.973 0.003-1.946-0.007-2.919-0.031l-0.259-0.008c-0.317-0.012-0.633-0.026-0.949-0.041-1.419-0.067-2.387-0.291-3.237-0.62-0.89-0.334-1.696-0.859-2.361-1.537-0.679-0.666-1.204-1.473-1.539-2.363-0.329-0.849-0.553-1.817-0.62-3.237-0.015-0.316-0.028-0.633-0.040-0.949l-0.007-0.259c-0.025-0.972-0.036-1.945-0.033-2.917v-2.741c-0.004-0.973 0.006-1.945 0.029-2.917l0.009-0.259c0.011-0.3 0.024-0.595 0.040-0.949 0.067-1.42 0.291-2.387 0.62-3.237 0.335-0.891 0.861-1.697 1.541-2.363 0.665-0.678 1.471-1.203 2.36-1.537 0.851-0.329 1.817-0.553 3.237-0.62 0.355-0.016 0.651-0.029 0.949-0.040l0.259-0.008c0.972-0.024 1.945-0.034 2.917-0.031l2.741-0.001zM16 9.333c-1.768 0-3.464 0.702-4.714 1.953s-1.953 2.946-1.953 4.714c0 1.768 0.702 3.464 1.953 4.714s2.946 1.953 4.714 1.953 3.464-0.702 4.714-1.953c1.25-1.25 1.953-2.946 1.953-4.714s-0.702-3.464-1.953-4.714c-1.25-1.25-2.946-1.953-4.714-1.953zM16 12c0.525-0 1.045 0.103 1.531 0.304s0.926 0.496 1.298 0.867c0.372 0.371 0.666 0.812 0.867 1.298s0.305 1.005 0.305 1.531c0 0.525-0.103 1.045-0.304 1.531s-0.495 0.926-0.867 1.298c-0.371 0.372-0.812 0.666-1.297 0.867s-1.005 0.305-1.531 0.305c-1.061 0-2.078-0.421-2.828-1.172s-1.172-1.768-1.172-2.828c0-1.061 0.421-2.078 1.172-2.828s1.768-1.172 2.828-1.172zM23.001 7.333c-0.442 0-0.866 0.176-1.178 0.488s-0.488 0.736-0.488 1.178c0 0.442 0.176 0.866 0.488 1.179s0.736 0.488 1.178 0.488c0.442 0 0.866-0.176 1.179-0.488s0.488-0.737 0.488-1.179c0-0.442-0.176-0.866-0.488-1.178s-0.736-0.488-1.179-0.488z">
            </path>
        </symbol>
        <symbol id="telegram" viewBox="0 0 32 32">
            <path
                d="M25.953 4.956l-23.64 9.116c-1.613 0.648-1.604 1.548-0.296 1.949l6.069 1.893 14.043-8.86c0.664-0.404 1.271-0.187 0.772 0.256l-11.377 10.269-0.419 6.256c0.613 0 0.884-0.281 1.228-0.613l2.948-2.867 6.132 4.529c1.131 0.623 1.943 0.303 2.224-1.047l4.025-18.971c0.412-1.652-0.631-2.4-1.709-1.912z">
            </path>
        </symbol>
        <symbol id="burger_icon" viewBox="0 0 46 32">
            <path d="M0 0.8h46.4v4.8h-46.4v-4.8z"></path>
            <path d="M0 26.4h46.4v4.8h-46.4v-4.8z"></path>
            <path d="M0 13.6h35.2v4.8h-35.2v-4.8z"></path>
        </symbol>
        <symbol id="skype" viewBox="0 0 31 32">
            <path
                d="M8.201 0.2c0.236-0.006 0.766 0.049 1.181 0.117 0.415 0.062 0.944 0.173 1.181 0.24s0.651 0.216 0.921 0.333c0.271 0.117 0.633 0.29 0.806 0.382 0.311 0.16 0.322 0.166 0.835 0.092 0.282-0.037 1.014-0.068 1.612-0.068s1.33 0.031 1.612 0.068c0.282 0.031 0.8 0.123 1.152 0.191s0.852 0.191 1.123 0.271c0.271 0.080 0.737 0.24 1.037 0.358 0.3 0.123 0.651 0.265 0.777 0.321s0.512 0.259 0.864 0.444c0.351 0.185 0.956 0.567 1.353 0.851s0.967 0.733 1.267 1.005c0.299 0.271 0.754 0.721 1.008 1.005s0.605 0.715 0.783 0.949c0.173 0.234 0.449 0.641 0.61 0.894 0.156 0.253 0.397 0.672 0.536 0.925s0.357 0.727 0.495 1.048c0.132 0.32 0.322 0.851 0.42 1.171s0.248 0.918 0.322 1.325c0.075 0.407 0.167 1.085 0.202 1.51 0.040 0.425 0.052 1.048 0.029 1.387-0.017 0.339-0.063 0.881-0.092 1.202-0.058 0.573-0.058 0.592 0.081 0.801 0.075 0.117 0.242 0.438 0.369 0.709s0.3 0.703 0.38 0.955c0.081 0.253 0.19 0.684 0.242 0.955s0.109 0.77 0.127 1.11c0.017 0.345 0 0.9-0.040 1.264-0.035 0.358-0.121 0.857-0.179 1.11-0.063 0.253-0.167 0.616-0.236 0.801s-0.213 0.53-0.323 0.77-0.294 0.586-0.409 0.77c-0.109 0.185-0.351 0.53-0.53 0.77s-0.524 0.635-0.777 0.881c-0.248 0.253-0.691 0.623-0.973 0.826s-0.754 0.493-1.037 0.635c-0.282 0.148-0.754 0.351-1.037 0.456s-0.829 0.247-1.209 0.314c-0.38 0.074-0.95 0.148-1.267 0.166-0.432 0.025-0.777 0-1.382-0.099-0.444-0.074-1.002-0.191-1.238-0.259-0.236-0.074-0.651-0.228-0.921-0.345s-0.605-0.29-1.008-0.53l-0.777 0.080c-0.518 0.056-1.134 0.068-1.843 0.043-0.587-0.018-1.336-0.080-1.67-0.136s-0.927-0.179-1.325-0.284c-0.397-0.105-0.956-0.284-1.238-0.395s-0.841-0.358-1.238-0.549c-0.397-0.197-0.979-0.518-1.296-0.721s-0.864-0.592-1.209-0.869-0.95-0.838-1.342-1.245c-0.392-0.413-0.87-0.962-1.065-1.227-0.196-0.271-0.507-0.727-0.691-1.017-0.184-0.296-0.524-0.937-0.754-1.43-0.225-0.493-0.484-1.103-0.564-1.356-0.086-0.253-0.219-0.697-0.294-0.986-0.081-0.29-0.184-0.758-0.23-1.048-0.052-0.29-0.121-0.795-0.155-1.128-0.029-0.327-0.058-0.937-0.058-1.356 0-0.413 0.040-1.042 0.167-2.046l-0.219-0.37c-0.121-0.203-0.311-0.567-0.42-0.801-0.115-0.24-0.271-0.653-0.351-0.925s-0.184-0.659-0.225-0.863c-0.040-0.21-0.075-0.77-0.069-1.294 0-0.647 0.029-1.079 0.104-1.448 0.052-0.29 0.155-0.69 0.219-0.894s0.225-0.623 0.357-0.925c0.132-0.308 0.38-0.777 0.553-1.048 0.167-0.271 0.593-0.801 0.944-1.177 0.415-0.444 0.835-0.826 1.186-1.072 0.299-0.21 0.777-0.499 1.065-0.647 0.288-0.142 0.766-0.345 1.065-0.45 0.299-0.099 0.674-0.216 0.835-0.253 0.155-0.037 0.547-0.111 0.864-0.154 0.317-0.049 0.772-0.086 1.008-0.092zM11.944 6.327c-0.236 0.055-0.628 0.166-0.864 0.253s-0.639 0.259-0.893 0.388c-0.253 0.123-0.593 0.321-0.749 0.438-0.161 0.117-0.415 0.339-0.57 0.493s-0.386 0.431-0.513 0.616c-0.132 0.185-0.294 0.475-0.357 0.647-0.069 0.166-0.161 0.462-0.207 0.647-0.040 0.185-0.075 0.616-0.069 0.955 0 0.37 0.040 0.777 0.104 1.017 0.052 0.222 0.155 0.524 0.23 0.678 0.069 0.154 0.259 0.444 0.415 0.647s0.438 0.499 0.622 0.653c0.19 0.154 0.489 0.364 0.662 0.475 0.173 0.105 0.587 0.302 0.921 0.438 0.334 0.142 0.823 0.321 1.094 0.407 0.271 0.080 0.76 0.222 1.094 0.302 0.334 0.086 1.134 0.284 1.785 0.431 0.651 0.154 1.417 0.351 1.699 0.438 0.282 0.092 0.622 0.228 0.749 0.302 0.127 0.080 0.386 0.284 0.576 0.45 0.213 0.191 0.403 0.425 0.489 0.61 0.121 0.259 0.144 0.382 0.144 0.888 0 0.536-0.017 0.616-0.173 0.918-0.092 0.185-0.288 0.444-0.432 0.573-0.144 0.136-0.415 0.339-0.605 0.45s-0.524 0.265-0.749 0.333c-0.225 0.074-0.703 0.16-1.065 0.197s-0.87 0.049-1.123 0.025c-0.253-0.019-0.605-0.068-0.777-0.105-0.173-0.031-0.501-0.148-0.72-0.259-0.219-0.105-0.53-0.32-0.685-0.468-0.15-0.154-0.386-0.444-0.524-0.647s-0.392-0.69-0.564-1.079c-0.213-0.475-0.403-0.807-0.582-1.005-0.144-0.16-0.386-0.351-0.541-0.425-0.19-0.093-0.386-0.13-0.674-0.136-0.23 0-0.53 0.043-0.691 0.105-0.161 0.055-0.392 0.197-0.518 0.308-0.127 0.117-0.294 0.345-0.369 0.512-0.104 0.234-0.132 0.401-0.132 0.733 0 0.24 0.046 0.598 0.104 0.801 0.052 0.204 0.161 0.505 0.242 0.678 0.075 0.166 0.236 0.462 0.357 0.647 0.115 0.185 0.369 0.518 0.553 0.734s0.507 0.53 0.714 0.696 0.593 0.425 0.864 0.573c0.271 0.148 0.737 0.358 1.037 0.462s0.806 0.247 1.123 0.314c0.317 0.062 0.95 0.154 1.411 0.191 0.633 0.049 1.065 0.049 1.785-0.006 0.524-0.037 1.209-0.129 1.526-0.197s0.818-0.203 1.106-0.308c0.294-0.099 0.697-0.265 0.893-0.37 0.202-0.111 0.559-0.333 0.795-0.505 0.236-0.166 0.633-0.524 0.875-0.795 0.248-0.265 0.553-0.666 0.68-0.9 0.127-0.228 0.3-0.635 0.38-0.906s0.167-0.746 0.19-1.048c0.029-0.302 0.023-0.789-0.006-1.079-0.023-0.29-0.098-0.703-0.161-0.925s-0.196-0.542-0.294-0.709c-0.098-0.173-0.276-0.431-0.392-0.579s-0.386-0.413-0.61-0.592c-0.225-0.173-0.57-0.419-0.777-0.542s-0.645-0.333-0.979-0.475c-0.426-0.179-1.348-0.444-3.139-0.894-1.394-0.351-2.701-0.703-2.908-0.789-0.207-0.080-0.484-0.21-0.622-0.284-0.132-0.068-0.351-0.234-0.489-0.37-0.155-0.148-0.271-0.333-0.322-0.505-0.046-0.173-0.063-0.376-0.040-0.549 0.023-0.154 0.098-0.388 0.173-0.524s0.248-0.351 0.386-0.475c0.138-0.123 0.369-0.277 0.513-0.345 0.144-0.062 0.415-0.173 0.605-0.234 0.288-0.099 0.53-0.117 1.468-0.117 0.933 0 1.181 0.018 1.469 0.117 0.19 0.062 0.438 0.16 0.547 0.222s0.345 0.247 0.518 0.413c0.173 0.166 0.524 0.635 0.777 1.036s0.553 0.807 0.662 0.912c0.109 0.105 0.317 0.247 0.461 0.314 0.196 0.099 0.374 0.129 0.72 0.129 0.374-0.006 0.512-0.031 0.743-0.154 0.15-0.086 0.38-0.265 0.501-0.401 0.127-0.136 0.271-0.345 0.328-0.462 0.063-0.136 0.098-0.357 0.098-0.616 0-0.222-0.046-0.555-0.098-0.74s-0.184-0.481-0.288-0.647c-0.104-0.173-0.357-0.487-0.564-0.709s-0.489-0.493-0.633-0.598c-0.144-0.105-0.495-0.314-0.777-0.468-0.282-0.148-0.726-0.345-0.979-0.431s-0.657-0.203-0.893-0.253c-0.236-0.049-0.668-0.123-0.95-0.16-0.282-0.031-0.956-0.055-1.497-0.055-0.536 0.006-1.25 0.043-1.584 0.086-0.334 0.049-0.8 0.129-1.037 0.185z">
            </path>
        </symbol>
        <symbol id="email" viewBox="0 0 31 32">
            <path
                d="M25.747 5.322h-20.598c-1.416 0-2.562 1.159-2.562 2.575l-0.013 15.448c0 1.416 1.159 2.575 2.575 2.575h20.598c1.416 0 2.575-1.159 2.575-2.575v-15.448c0-1.416-1.159-2.575-2.575-2.575zM25.747 10.471l-10.299 6.437-10.299-6.437v-2.575l10.299 6.437 10.299-6.437v2.575z">
            </path>
        </symbol>
        <symbol id="arrow" viewBox="0 0 12 32">
            <path fill="" style=""
                d="M6.71 16.609h-6.71v-2.099h6.71l-2.589-2.586 1.486-1.484 5.125 5.12-5.125 5.12-1.486-1.484 2.589-2.586z">
            </path>
        </symbol>
        <symbol id="home" viewBox="0 0 32 32">
            <path fill="#fff" style="fill: var(--color1, #fff)"
                d="M28.99 16.441l-12-13.333c-0.505-0.563-1.476-0.563-1.981 0l-12 13.333c-0.173 0.192-0.286 0.429-0.326 0.684s-0.006 0.516 0.1 0.751c0.213 0.481 0.691 0.791 1.217 0.791h2.667v9.333c0 0.354 0.14 0.693 0.391 0.943s0.589 0.391 0.943 0.391h4c0.354 0 0.693-0.14 0.943-0.391s0.391-0.589 0.391-0.943v-5.333h5.333v5.333c0 0.354 0.14 0.693 0.391 0.943s0.589 0.391 0.943 0.391h4c0.354 0 0.693-0.14 0.943-0.391s0.391-0.589 0.391-0.943v-9.333h2.667c0.258 0.001 0.511-0.073 0.728-0.213s0.388-0.34 0.493-0.576c0.105-0.236 0.139-0.497 0.098-0.752s-0.155-0.492-0.329-0.684z">
            </path>
        </symbol>
        <symbol id="vector-right-thin" viewBox="0 0 18 32">
            <path fill="none" stroke="#fff" style="stroke: var(--color1, #fff)" stroke-linejoin="miter"
                stroke-linecap="butt" stroke-miterlimit="4" stroke-width="2.2857"
                d="M2.286 29.714l13.714-13.714-13.714-13.714"></path>
        </symbol>
        <symbol id="vector-left-thick" viewBox="0 0 22 32">
            <path fill="none" stroke="#fff" style="stroke: var(--color1, #fff)" stroke-linejoin="miter"
                stroke-linecap="butt" stroke-miterlimit="4" stroke-width="6" d="M18 28l-12-12 12-12"></path>
        </symbol>
        <symbol id="show-btn" viewBox="0 0 32 32">
            <path
                d="M31 12h-11v-11c0-0.552-0.447-1-1-1h-6c-0.553 0-1 0.448-1 1v11h-11c-0.553 0-1 0.448-1 1v6c0 0.553 0.447 1 1 1h11v11c0 0.553 0.447 1 1 1h6c0.553 0 1-0.447 1-1v-11h11c0.553 0 1-0.447 1-1v-6c0-0.552-0.447-1-1-1z">
            </path>
        </symbol>
        <symbol id="close-btn" viewBox="0 0 31 32">
            <path fill="none" stroke="#fdc538" style="stroke: var(--color1, #fdc538)" stroke-linejoin="miter"
                stroke-linecap="butt" stroke-miterlimit="4" stroke-width="3.8788" d="M4.439 4.952l22.303 22.303"></path>
            <path fill="none" stroke="#fdc538" style="stroke: var(--color1, #fdc538)" stroke-linejoin="miter"
                stroke-linecap="butt" stroke-miterlimit="4" stroke-width="3.8788"
                d="mNaNclNaNNaNclNaNNaNNaNNaNclNaNNaNclNaNNaN"></path>
        </symbol>
        <symbol id="arrow-slide-btn" viewBox="0 0 31 32">
            <path stroke-linejoin="miter" stroke-linecap="butt" stroke-miterlimit="4" stroke-width="1.0323"
                d="M14.398 30.19l-0.365 0.365-1.988-1.988 11.852-11.852h-22.496v-2.812h22.66l-10.254-10.254 1.988-1.988 13.566 13.566-14.963 14.963z">
            </path>
        </symbol>
        <symbol id="geoloc" viewBox="0 0 22 32">
            <path fill="#fdc538" style="fill: var(--color1, #fdc538)"
                d="M21.147 10.752c0 2.309-0.74 4.444-1.995 6.183l-8.363 14.101-8.556-13.785c-1.399-1.793-2.232-4.048-2.232-6.498 0-5.84 4.734-10.573 10.573-10.573s10.573 4.734 10.573 10.573zM10.573 15.715c2.86 0 5.179-2.319 5.179-5.179s-2.319-5.179-5.179-5.179c-2.86 0-5.179 2.319-5.179 5.179s2.319 5.179 5.179 5.179z">
            </path>
        </symbol>
        <symbol id="burger-icon" viewBox="0 0 46 32">
            <path d="M0 0.8h46.4v4.8h-46.4v-4.8z"></path>
            <path d="M0 26.4h46.4v4.8h-46.4v-4.8z"></path>
            <path d="M0 13.6h35.2v4.8h-35.2v-4.8z"></path>
        </symbol>
        <symbol id="logo" viewBox="0 0 26 32">
            <path fill="#fdc538" style="fill: var(--color1, #fdc538)"
                d="M18.976 12.428l3.065 1.941c0 0 0.004 0.004 0.006 0.004l0.004 0.002c0.771 0.53 1.275 1.406 1.275 2.401 0 0.732-0.275 1.399-0.728 1.912 1.358-1.38 2.192-3.258 2.192-5.33 0-2.788-1.513-5.227-3.775-6.568l-9.003-5.689c-1.588-0.943-3.546-1.347-5.608-0.95-3.631 0.702-6.212 3.893-6.212 7.534v13.127c0.011-0.043 0.021-0.086 0.032-0.13 0.006-0.023 0.012-0.046 0.018-0.070 0.012-0.045 0.023-0.090 0.035-0.136 0.006-0.022 0.012-0.044 0.018-0.066 0.015-0.058 0.031-0.116 0.047-0.176 0.003-0.011 0.005-0.021 0.008-0.031 0.019-0.069 0.038-0.14 0.058-0.211 0.006-0.021 0.012-0.043 0.018-0.064 0.014-0.051 0.029-0.102 0.044-0.154 0.007-0.026 0.015-0.052 0.023-0.079 0.014-0.051 0.029-0.101 0.044-0.152 0.007-0.025 0.014-0.050 0.022-0.074 0.019-0.062 0.037-0.125 0.057-0.189 0.004-0.013 0.008-0.027 0.012-0.040 0.023-0.077 0.047-0.155 0.072-0.232 0.007-0.022 0.014-0.045 0.021-0.067 0.018-0.057 0.035-0.114 0.054-0.172 0.009-0.028 0.018-0.056 0.026-0.085 0.018-0.055 0.035-0.109 0.053-0.165 0.009-0.027 0.018-0.055 0.026-0.082 0.021-0.066 0.042-0.131 0.065-0.197 0.005-0.017 0.011-0.033 0.016-0.050 0.027-0.083 0.055-0.166 0.083-0.25 0.007-0.022 0.015-0.045 0.022-0.066 0.021-0.062 0.042-0.125 0.064-0.188 0.010-0.030 0.020-0.059 0.030-0.089 0.019-0.058 0.040-0.115 0.059-0.174 0.010-0.029 0.020-0.058 0.030-0.087 0.023-0.066 0.046-0.133 0.070-0.2 0.007-0.021 0.014-0.041 0.021-0.062 0.031-0.087 0.062-0.175 0.093-0.262 0.007-0.020 0.014-0.040 0.022-0.061 0.024-0.067 0.049-0.135 0.073-0.204 0.011-0.031 0.022-0.062 0.034-0.093 0.021-0.059 0.043-0.119 0.065-0.179 0.012-0.031 0.023-0.062 0.034-0.093 0.025-0.067 0.049-0.134 0.074-0.201 0.009-0.023 0.017-0.045 0.026-0.068 0.034-0.090 0.067-0.179 0.101-0.269 0.007-0.019 0.014-0.038 0.022-0.057 0.027-0.072 0.055-0.143 0.082-0.216 0.012-0.030 0.023-0.059 0.034-0.089 0.024-0.063 0.049-0.125 0.072-0.188 0.012-0.031 0.024-0.061 0.036-0.093 0.026-0.067 0.052-0.134 0.079-0.201 0.010-0.024 0.019-0.049 0.029-0.074 0.036-0.091 0.072-0.182 0.108-0.273 0.006-0.016 0.012-0.031 0.019-0.047 0.030-0.075 0.060-0.15 0.091-0.226 0.012-0.030 0.024-0.059 0.036-0.089 0.026-0.063 0.051-0.125 0.076-0.188 0.012-0.031 0.026-0.062 0.038-0.093 0.027-0.066 0.055-0.133 0.082-0.2 0.010-0.024 0.020-0.049 0.030-0.073 0.038-0.091 0.076-0.182 0.114-0.273 0.004-0.011 0.010-0.023 0.015-0.034 0.034-0.079 0.066-0.157 0.1-0.236 0.012-0.028 0.024-0.056 0.036-0.084 0.026-0.063 0.054-0.125 0.080-0.187 0.013-0.031 0.026-0.061 0.040-0.092 0.028-0.064 0.056-0.128 0.084-0.192 0.011-0.025 0.022-0.051 0.034-0.076 0.039-0.088 0.078-0.176 0.117-0.265 0.004-0.009 0.008-0.017 0.011-0.025 0.035-0.079 0.071-0.158 0.107-0.237 0.012-0.027 0.024-0.053 0.036-0.079 0.027-0.061 0.056-0.121 0.083-0.183 0.013-0.030 0.027-0.059 0.041-0.088 0.028-0.061 0.056-0.121 0.084-0.182 0.011-0.025 0.024-0.051 0.035-0.076 0.040-0.085 0.079-0.169 0.119-0.253 0.001-0.002 0.002-0.003 0.003-0.005 0.039-0.081 0.078-0.162 0.117-0.243 0.012-0.025 0.025-0.051 0.037-0.076 0.028-0.058 0.056-0.115 0.084-0.172 0.013-0.028 0.027-0.056 0.041-0.084 0.028-0.057 0.056-0.113 0.084-0.169 0.012-0.024 0.025-0.050 0.037-0.074 0.039-0.078 0.078-0.155 0.117-0.231 0-0.002 0.002-0.004 0.003-0.005 0.040-0.079 0.080-0.155 0.12-0.233 0.011-0.023 0.023-0.045 0.034-0.066 0.028-0.054 0.057-0.108 0.085-0.162 0.013-0.026 0.027-0.052 0.041-0.078 0.027-0.052 0.055-0.103 0.082-0.154 0.012-0.024 0.026-0.047 0.038-0.071 0.035-0.066 0.072-0.13 0.107-0.195 0.004-0.007 0.008-0.014 0.011-0.021 0.040-0.071 0.079-0.141 0.117-0.21 0.011-0.020 0.023-0.040 0.034-0.060 0.028-0.049 0.056-0.098 0.084-0.145 0.013-0.024 0.027-0.046 0.041-0.070 0.027-0.045 0.053-0.091 0.080-0.135 0.012-0.022 0.026-0.043 0.038-0.065 0.033-0.054 0.065-0.108 0.098-0.162 0.006-0.010 0.011-0.019 0.018-0.029 0.038-0.062 0.077-0.123 0.115-0.183 0.011-0.017 0.021-0.034 0.033-0.051 0.027-0.043 0.055-0.085 0.081-0.127 0.013-0.020 0.027-0.040 0.040-0.060 0.011-0.017 0.023-0.036 0.034-0.052s0.020-0.030 0.031-0.045c0.023-0.033 0.045-0.066 0.067-0.099 0.019-0.028 0.039-0.056 0.057-0.083 0.022-0.031 0.045-0.063 0.067-0.094 0.019-0.026 0.038-0.052 0.057-0.079 0.022-0.031 0.044-0.060 0.066-0.089 0.019-0.024 0.037-0.050 0.056-0.073 0.022-0.029 0.043-0.056 0.065-0.084 0.019-0.024 0.037-0.046 0.055-0.069 0.022-0.027 0.043-0.052 0.064-0.079 0.018-0.022 0.036-0.043 0.054-0.064 0.022-0.025 0.043-0.049 0.064-0.073 0.018-0.019 0.034-0.039 0.052-0.058 0.022-0.024 0.043-0.046 0.064-0.068 0.017-0.017 0.034-0.035 0.049-0.052 0.022-0.022 0.043-0.043 0.065-0.064 0.013-0.013 0.027-0.027 0.041-0.039 0.003-0.003 0.004-0.004 0.007-0.007 0.013-0.011 0.026-0.024 0.038-0.035 0.024-0.023 0.048-0.045 0.072-0.066 0 0 0.002-0.001 0.003-0.002s0.001-0.001 0.002-0.002c0.651-0.543 1.577-0.563 2.317-0.1l9.875 6.262z">
            </path>
            <path fill="#fdc538" style="fill: var(--color1, #fdc538)"
                d="M21.82 14.75l-2.533-1.606c0.005 0.056 0.008 0.114 0.009 0.172 0.012 0.717-0.31 1.238-0.621 1.568-0.155 0.164-0.31 0.286-0.427 0.365-0.058 0.040-0.109 0.071-0.146 0.093-0.019 0.011-0.034 0.019-0.045 0.025-0.006 0.004-0.011 0.006-0.014 0.008h-0.001l-13.612 7.151c-2.265 1.233-3.794 3.604-3.794 6.329v0.782c0 0.787 0.021 1.574 0.061 2.362 0.072-0.083 0.147-0.165 0.221-0.246 0.219-0.242 0.421-0.487 0.631-0.739 0.1-0.121 0.201-0.243 0.307-0.368 0.319-0.378 0.661-0.759 1.059-1.11 0.783-0.686 1.686-1.274 2.528-1.822 0.061-0.039 0.121-0.079 0.182-0.118 2.053-1.341 4.263-2.433 6.446-3.512 0.893-0.441 1.781-0.881 2.653-1.333l5.845-3.067c0.558-0.304 1.073-0.681 1.533-1.114 0.482-0.455 0.782-1.089 0.782-1.794 0-0.836-0.417-1.573-1.064-2.027l-0.001-0.001z">
            </path>
            <path fill="#fdc538" style="fill: var(--color1, #fdc538)"
                d="M3.22 13.432c-1.119 2.655-2.090 5.456-2.565 7.345l5.029-2.725v-9.637c-0.139 0.23-0.281 0.475-0.426 0.736-0.677 1.22-1.381 2.718-2.039 4.279v0.001z">
            </path>
        </symbol>

    </defs>
</svg>