<svg width="42" height="43" viewBox="0 0 42 43" fill="none" xmlns="http://www.w3.org/2000/svg">
    <path fill-rule="evenodd" clip-rule="evenodd"
        d="M22.0715 14.4282V17.9918C22.8175 16.8547 23.846 15.931 25.0564 15.3111C26.2668 14.6911 27.6175 14.3963 28.9761 14.4555C36.2315 14.4555 37.8002 18.9914 37.8002 24.8922V36.9061H31.0803V26.2551C31.0803 23.7142 30.5679 20.4466 26.6116 20.4466C22.775 20.4466 22.1198 23.2123 22.1198 26.0661V36.9061H15.4209V14.4282H22.0715ZM10.9207 8.77927C10.9199 9.44496 10.7226 10.0956 10.3535 10.6496C9.98439 11.2036 9.45996 11.6363 8.84596 11.8935C8.2322 12.1486 7.55642 12.2153 6.90462 12.0852C6.25282 11.9551 5.65447 11.634 5.18573 11.1627C4.71611 10.6912 4.39639 10.0913 4.26677 9.43859C4.13716 8.78584 4.20344 8.10933 4.45728 7.49415C4.71112 6.87897 5.14118 6.35257 5.69339 5.98116C6.2456 5.60974 6.89529 5.40989 7.56078 5.40674C8.003 5.40701 8.44082 5.49452 8.84916 5.66426C9.2575 5.834 9.62835 6.08263 9.94046 6.39591C10.2526 6.70919 10.4998 7.08096 10.668 7.48994C10.8362 7.89891 10.9221 8.33706 10.9207 8.77927Z"
        fill="" />
    <path d="M10.9201 14.4556H4.2002V36.9062H10.9201V14.4556Z" fill="" />
</svg>