<svg width="24" height="25" viewBox="0 0 24 25" fill="none" xmlns="http://www.w3.org/2000/svg">
<path fill-rule="evenodd" clip-rule="evenodd" d="M6.40704 0.156372C6.5915 0.151557 7.00541 0.194895 7.32934 0.247864C7.65326 0.296017 8.06717 0.382693 8.25163 0.435662C8.43608 0.488631 8.76001 0.604199 8.97146 0.695691C9.18292 0.787182 9.46635 0.922012 9.60132 0.994242C9.84427 1.11944 9.85326 1.12426 10.2537 1.06647C10.4741 1.03758 11.0455 1.0135 11.5134 1.0135C11.9813 1.0135 12.5527 1.03758 12.7731 1.06647C12.9936 1.09055 13.3985 1.16278 13.6729 1.21575C13.9473 1.26872 14.3387 1.36502 14.5502 1.42762C14.7617 1.49022 15.1261 1.61542 15.36 1.70691C15.594 1.80322 15.8684 1.91397 15.9674 1.95731C16.0664 2.00065 16.3678 2.15956 16.6422 2.30402C16.9167 2.44848 17.3891 2.74703 17.6995 2.96853C18.0099 3.19004 18.4553 3.54156 18.6893 3.75343C18.9232 3.96531 19.2786 4.31683 19.4766 4.53834C19.6745 4.75984 19.949 5.09692 20.0884 5.2799C20.2234 5.46288 20.4394 5.78069 20.5653 5.97812C20.6868 6.17555 20.8758 6.503 20.9837 6.70043C21.0917 6.89785 21.2627 7.26864 21.3707 7.51903C21.4741 7.76943 21.6226 8.18355 21.6991 8.43395C21.7756 8.68435 21.8925 9.15143 21.951 9.46925C22.0095 9.78706 22.0815 10.3167 22.1085 10.649C22.14 10.9813 22.149 11.4676 22.131 11.7325C22.1175 11.9973 22.0815 12.4211 22.059 12.6715C22.014 13.1193 22.014 13.1337 22.122 13.2974C22.1805 13.3889 22.3109 13.6393 22.4099 13.8512C22.5089 14.0631 22.6439 14.4002 22.7069 14.5976C22.7698 14.795 22.8553 15.1321 22.8958 15.344C22.9363 15.5558 22.9813 15.9459 22.9948 16.2107C23.0083 16.4804 22.9948 16.9138 22.9633 17.1979C22.9363 17.4772 22.8688 17.8672 22.8238 18.0646C22.7743 18.2621 22.6934 18.5462 22.6394 18.6906C22.5854 18.8351 22.4729 19.1048 22.3874 19.2926C22.3019 19.4803 22.158 19.75 22.068 19.8945C21.9825 20.0389 21.7936 20.3086 21.6541 20.4964C21.5146 20.6842 21.2447 20.9924 21.0467 21.185C20.8533 21.3824 20.5069 21.6713 20.2864 21.8302C20.066 21.9891 19.697 22.2155 19.4766 22.3262C19.2561 22.4418 18.8872 22.6007 18.6668 22.6826C18.4463 22.7644 18.0189 22.8752 17.722 22.9281C17.4251 22.9859 16.9797 23.0437 16.7322 23.0581C16.3948 23.0774 16.1248 23.0581 15.6525 22.9811C15.306 22.9233 14.8696 22.8318 14.6852 22.7789C14.5007 22.7211 14.1768 22.6007 13.9653 22.5092C13.7539 22.4177 13.4929 22.2829 13.178 22.0951L12.5706 22.1577C12.1657 22.201 11.6844 22.2106 11.131 22.1914C10.6721 22.1769 10.0872 22.1288 9.82627 22.0854C9.56533 22.0421 9.10193 21.9458 8.7915 21.8639C8.48107 21.7821 8.04467 21.6424 7.82422 21.5558C7.60377 21.4691 7.16737 21.2765 6.85694 21.1272C6.54651 20.9731 6.09211 20.7227 5.84467 20.5638C5.59723 20.4049 5.16982 20.1015 4.89988 19.8848C4.62995 19.6681 4.15755 19.2299 3.85162 18.9121C3.54569 18.5895 3.17228 18.1609 3.01931 17.9539C2.86634 17.742 2.6234 17.3857 2.47943 17.1594C2.33546 16.9282 2.07002 16.4274 1.89006 16.0422C1.7146 15.657 1.51215 15.1802 1.44916 14.9828C1.38168 14.7854 1.2782 14.4387 1.21972 14.2124C1.15673 13.986 1.07575 13.6201 1.03976 13.3938C0.999266 13.1674 0.945279 12.7726 0.918285 12.5125C0.89579 12.2573 0.873295 11.7806 0.873295 11.4532C0.873295 11.1305 0.904788 10.6394 1.00377 9.85448L0.832804 9.56555C0.738326 9.40665 0.589859 9.12254 0.504378 8.93956C0.414399 8.75176 0.292926 8.42913 0.22994 8.21726C0.166955 8.00538 0.085973 7.70202 0.0544801 7.54311C0.0229873 7.37939 -0.00400663 6.94119 0.000492353 6.53189C0.000492353 6.02628 0.0229873 5.6892 0.081474 5.40028C0.121965 5.17396 0.202947 4.86096 0.252435 4.70206C0.301924 4.54315 0.427896 4.21571 0.531372 3.97976C0.634849 3.73899 0.828305 3.37302 0.963275 3.16115C1.09375 2.94927 1.42667 2.53515 1.70111 2.24142C2.02503 1.89471 2.35346 1.59616 2.6279 1.40355C2.86185 1.23982 3.23526 1.0135 3.46021 0.897935C3.68516 0.787182 4.05857 0.628276 4.29252 0.546415C4.52647 0.469369 4.8189 0.377878 4.94487 0.348986C5.06635 0.320094 5.37228 0.26231 5.61972 0.228602C5.86717 0.190079 6.22259 0.161187 6.40704 0.156372ZM9.33138 4.94282C9.14692 4.98616 8.84099 5.07284 8.65654 5.14025C8.47208 5.20767 8.15715 5.3425 7.95919 5.44362C7.76124 5.53993 7.4958 5.69402 7.37432 5.78551C7.24835 5.877 7.0504 6.05035 6.92893 6.17074C6.80745 6.29112 6.62749 6.50781 6.52852 6.65227C6.42504 6.79673 6.29907 7.02305 6.24958 7.15788C6.19559 7.2879 6.12361 7.51903 6.08762 7.66349C6.05612 7.80795 6.02913 8.14503 6.03363 8.40987C6.03363 8.69879 6.06512 9.01661 6.11461 9.2044C6.1551 9.37776 6.23608 9.61371 6.29457 9.73409C6.34856 9.85448 6.49702 10.0808 6.6185 10.2397C6.73997 10.3986 6.96042 10.6297 7.10439 10.7501C7.25285 10.8705 7.4868 11.0342 7.62177 11.1209C7.75674 11.2028 8.08066 11.3569 8.34161 11.4628C8.60255 11.5736 8.98496 11.7132 9.19641 11.7806C9.40786 11.8432 9.79028 11.954 10.0512 12.0166C10.3122 12.084 10.9375 12.2381 11.4459 12.3536C11.9543 12.474 12.5527 12.6281 12.7731 12.6955C12.9936 12.7678 13.259 12.8737 13.358 12.9315C13.4569 12.9941 13.6594 13.153 13.8079 13.283C13.9743 13.4323 14.1228 13.6153 14.1903 13.7597C14.2848 13.962 14.3028 14.0583 14.3028 14.4531C14.3028 14.8721 14.2893 14.9347 14.1678 15.1706C14.0958 15.3151 13.9428 15.5173 13.8304 15.6184C13.7179 15.7244 13.5064 15.8833 13.358 15.97C13.2095 16.0566 12.9486 16.177 12.7731 16.23C12.5976 16.2878 12.2242 16.3552 11.9408 16.3841C11.6574 16.413 11.2614 16.4226 11.0635 16.4033C10.8655 16.3889 10.5911 16.3504 10.4561 16.3215C10.3212 16.2974 10.0647 16.2059 9.89375 16.1192C9.72279 16.0374 9.47985 15.8688 9.35838 15.7533C9.2414 15.6329 9.05694 15.4066 8.94897 15.2477C8.84099 15.0888 8.64304 14.7083 8.50807 14.405C8.34161 14.0342 8.19314 13.7742 8.05367 13.6201C7.9412 13.4949 7.75224 13.3456 7.63077 13.2878C7.4823 13.2156 7.32933 13.1867 7.10439 13.1819C6.92443 13.1819 6.69048 13.2156 6.56451 13.2637C6.43854 13.3071 6.25858 13.4178 6.1596 13.5045C6.06062 13.596 5.93015 13.7742 5.87166 13.9042C5.79068 14.0872 5.76819 14.2172 5.76819 14.4772C5.76819 14.665 5.80418 14.9443 5.84917 15.1032C5.88966 15.2621 5.97514 15.4981 6.03813 15.6329C6.09661 15.7629 6.22259 15.994 6.31706 16.1385C6.40704 16.283 6.605 16.543 6.74897 16.7115C6.89293 16.8801 7.14488 17.1256 7.30684 17.2557C7.4688 17.3857 7.77024 17.5879 7.98169 17.7035C8.19314 17.8191 8.55756 17.9828 8.7915 18.0646C9.02545 18.1465 9.42136 18.2572 9.66881 18.3102C9.91625 18.3584 10.4111 18.4306 10.7711 18.4595C11.2659 18.498 11.6034 18.498 12.1657 18.4547C12.5751 18.4258 13.1105 18.3536 13.358 18.3006C13.6054 18.2476 13.9968 18.1417 14.2218 18.0598C14.4512 17.9828 14.7662 17.8528 14.9191 17.7709C15.0766 17.6842 15.3555 17.5109 15.54 17.376C15.7244 17.246 16.0349 16.9667 16.2238 16.7549C16.4173 16.5478 16.6557 16.2348 16.7547 16.0518C16.8537 15.8737 16.9887 15.5558 17.0516 15.344C17.1146 15.1321 17.1821 14.7613 17.2001 14.5254C17.2226 14.2894 17.2181 13.909 17.1956 13.6827C17.1776 13.4564 17.1191 13.1337 17.0696 12.9604C17.0201 12.787 16.9167 12.5366 16.8402 12.4066C16.7637 12.2718 16.6242 12.0695 16.5343 11.954C16.4443 11.8384 16.2328 11.6313 16.0574 11.4917C15.8819 11.3569 15.612 11.1642 15.45 11.0679C15.288 10.9716 14.9461 10.8079 14.6852 10.6972C14.3522 10.5575 13.6324 10.3505 12.2332 9.99894C11.1445 9.72446 10.1232 9.44999 9.96124 9.38257C9.79928 9.31997 9.58333 9.21885 9.47535 9.16107C9.37187 9.1081 9.20091 8.97808 9.09294 8.87214C8.97146 8.75658 8.88148 8.61212 8.84099 8.47729C8.805 8.34246 8.7915 8.18355 8.8095 8.04872C8.8275 7.92834 8.88598 7.74535 8.94447 7.63942C9.00296 7.53348 9.13793 7.36494 9.2459 7.26863C9.35388 7.17233 9.53384 7.05195 9.64631 6.99898C9.75879 6.95082 9.97024 6.86415 10.1187 6.81599C10.3437 6.73895 10.5326 6.7245 11.2659 6.7245C11.9948 6.7245 12.1882 6.73895 12.4132 6.81599C12.5617 6.86415 12.7551 6.94119 12.8406 6.98935C12.9261 7.0375 13.1105 7.18196 13.2455 7.31197C13.3805 7.44199 13.6549 7.80795 13.8529 8.12095C14.0508 8.43395 14.2848 8.75176 14.3702 8.83362C14.4557 8.91548 14.6177 9.02624 14.7302 9.0792C14.8831 9.15625 15.0226 9.18033 15.2925 9.18033C15.585 9.17551 15.6929 9.15625 15.8729 9.05994C15.9899 8.99253 16.1698 8.85288 16.2643 8.74695C16.3633 8.64101 16.4758 8.47729 16.5208 8.3858C16.5702 8.27986 16.5972 8.10651 16.5972 7.90426C16.5972 7.73091 16.5612 7.47088 16.5208 7.32642C16.4803 7.18196 16.3768 6.95082 16.2958 6.82081C16.2148 6.68598 16.0169 6.4404 15.8549 6.26704C15.6929 6.09369 15.4725 5.88182 15.36 5.79996C15.2475 5.71809 14.9731 5.55437 14.7527 5.43399C14.5322 5.31842 14.1858 5.16433 13.9878 5.09692C13.7899 5.0295 13.4749 4.93801 13.2905 4.89949C13.106 4.86096 12.7686 4.80318 12.5482 4.77429C12.3277 4.75021 11.8013 4.73095 11.3784 4.73095C10.96 4.73576 10.4021 4.76466 10.1412 4.79836C9.88026 4.83689 9.51584 4.89949 9.33138 4.94282Z" fill="#FF412A"/>
</svg>
